<svg width="399" height="396" viewBox="0 0 399 396" fill="none" xmlns="http://www.w3.org/2000/svg">
<path fill-rule="evenodd" clip-rule="evenodd" d="M132.926 11.5L143.926 4.5L148.426 9C148.259 4.33333 149.526 -3.6 155.926 2C162.326 7.6 167.259 6 168.926 4.5L175.926 2L179.926 4.5L188.426 2L194.926 4.5L204.926 2L210.926 4.5L222.426 2L227.926 4.5L234.926 2L240.426 4.5L249.426 2L256.926 9L258.926 2L264.426 9L265.926 6V132H132.926V11.5Z" fill="#0D3334"/>
<path fill-rule="evenodd" clip-rule="evenodd" d="M132.926 49.5C139.926 45.6666 155.226 38.7 160.426 41.5C165.626 44.3 174.926 45 178.926 45C183.593 43.8333 194.626 41.5 201.426 41.5C204.026 41.5 207.654 41.1726 211.582 40.8182C220.497 40.0139 230.955 39.0703 234.426 41.5C238.003 44.0035 241.323 42.9255 243.839 42.1087C244.84 41.7837 245.714 41.5 246.426 41.5H256.426C260.426 41.5 264.426 38.5 265.926 37V132H132.926V49.5Z" fill="#084547"/>
<path fill-rule="evenodd" clip-rule="evenodd" d="M265.926 384.574L254.926 391.574L250.426 387.074C250.593 391.741 249.326 399.674 242.926 394.074C236.526 388.474 231.593 390.074 229.926 391.574L222.926 394.074L218.926 391.574L210.426 394.074L203.926 391.574L193.926 394.074L187.926 391.574L176.426 394.074L170.926 391.574L163.926 394.074L158.426 391.574L149.426 394.074L141.926 387.074L139.926 394.074L134.426 387.074L132.926 390.074L132.926 264.074L265.926 264.074L265.926 384.574Z" fill="#0D3334"/>
<path fill-rule="evenodd" clip-rule="evenodd" d="M265.926 346.574C258.926 350.407 243.626 357.374 238.426 354.574C233.226 351.774 223.926 351.074 219.926 351.074C215.259 352.241 204.226 354.574 197.426 354.574C194.827 354.574 191.198 354.901 187.27 355.256C178.355 356.06 167.897 357.004 164.426 354.574C160.85 352.07 157.529 353.148 155.013 353.965C154.012 354.29 153.138 354.574 152.426 354.574L142.426 354.574C138.426 354.574 134.426 357.574 132.926 359.074L132.926 264.074L265.926 264.074L265.926 346.574Z" fill="#084547"/>
<path fill-rule="evenodd" clip-rule="evenodd" d="M386.426 133L393.426 144L388.926 148.5C393.593 148.333 401.526 149.6 395.926 156C390.326 162.4 391.926 167.333 393.426 169L395.926 176L393.426 180L395.926 188.5L393.426 195L395.926 205L393.426 211L395.926 222.5L393.426 228L395.926 235L393.426 240.5L395.926 249.5L388.926 257L395.926 259L388.926 264.5L391.926 266L265.926 266L265.926 133L386.426 133Z" fill="#0D3334"/>
<path fill-rule="evenodd" clip-rule="evenodd" d="M348.426 133C352.26 140 359.226 155.3 356.426 160.5C353.626 165.7 352.926 175 352.926 179C354.093 183.667 356.426 194.7 356.426 201.5C356.426 204.1 356.754 207.728 357.108 211.656C357.912 220.571 358.856 231.029 356.426 234.5C353.923 238.077 355.001 241.397 355.818 243.913C356.143 244.914 356.426 245.788 356.426 246.5L356.426 256.5C356.426 260.5 359.426 264.5 360.926 266L265.926 266L265.926 133L348.426 133Z" fill="#084547"/>
<path fill-rule="evenodd" clip-rule="evenodd" d="M12.4261 266L5.42609 255L9.92609 250.5C5.25942 250.667 -2.67391 249.4 2.92609 243C8.52609 236.6 6.92609 231.667 5.42609 230L2.92609 223L5.42609 219L2.92609 210.5L5.42609 204L2.92609 194L5.42609 188L2.92609 176.5L5.42609 171L2.92608 164L5.42608 158.5L2.92608 149.5L9.92608 142L2.92608 140L9.92608 134.5L6.92608 133L132.926 133L132.926 266L12.4261 266Z" fill="#0D3334"/>
<path fill-rule="evenodd" clip-rule="evenodd" d="M50.4261 266C46.5928 259 39.6261 243.7 42.4261 238.5C45.2261 233.3 45.9261 224 45.9261 220C44.7595 215.333 42.4261 204.3 42.4261 197.5C42.4261 194.9 42.0988 191.272 41.7444 187.344C40.94 178.429 39.9965 167.971 42.4261 164.5C44.9297 160.923 43.8516 157.603 43.0349 155.087C42.7098 154.086 42.4261 153.212 42.4261 152.5L42.4261 142.5C42.4261 138.5 39.4261 134.5 37.9261 133L132.926 133L132.926 266L50.4261 266Z" fill="#084547"/>
<rect x="132.926" y="132" width="133" height="133" fill="#084547"/>
<path fill-rule="evenodd" clip-rule="evenodd" d="M265.926 6.5L272.926 1.5L284.426 6.5L297.926 1.5L303.926 4L317.426 1.5L326.426 4L332.648 0.000366211C333.1 0.00184267 333.552 0.00783839 334.002 0.0183106L338.426 4H352.426V6.5L357.926 8.5L365.926 12L373.426 17H376.834C376.917 17.0741 376.999 17.1483 377.081 17.2228C375.473 18.3357 373.696 20.6352 377.426 22.5C381.426 24.5 385.093 28.3333 386.426 30V34.5L391.426 41V48.5L395.426 56L391.426 64L395.426 72.5L393.426 81L397.926 90C395.759 89.8333 391.826 91.5 393.426 99.5C395.026 107.5 397.093 112.5 397.926 114L395.426 120.5L397.926 127L393.426 130.5C395.759 131.167 399.026 132.6 393.426 133H265.926V6.5Z" fill="#0D3334"/>
<path fill-rule="evenodd" clip-rule="evenodd" d="M265.926 34.5408V133H352.393L358.926 126L367.426 118.5L362.926 110.5L366.426 100.5L367.426 85.5C365.235 83.5525 365.284 83.0628 365.782 78.1101C365.965 76.2813 366.21 73.844 366.426 70.5C366.856 63.8382 363.368 62.6718 360.121 61.5861C357.324 60.651 354.706 59.7757 354.926 55.5C355.02 53.6627 354.075 51.576 353.177 49.5935C352.687 48.5122 352.211 47.4619 351.926 46.5C351.151 43.8863 348.976 44.054 346.546 44.2414C344.452 44.403 342.167 44.5791 340.426 43C338.93 41.6427 338.479 40.9352 337.969 40.1334C337.543 39.4649 337.076 38.7308 335.926 37.5C333.691 35.1086 331.151 35.015 328.271 34.9089C326.901 34.8584 325.453 34.8051 323.926 34.5C314.685 32.6541 304.593 31.6667 299.926 32C295.259 32.3334 283.726 32.8001 274.926 32C269.488 31.5056 266.952 32.8954 265.926 34.5408Z" fill="#084547"/>
<path fill-rule="evenodd" clip-rule="evenodd" d="M133 389.5L126 394.5L114.5 389.5L101 394.5L95 392L81.5 394.5L72.5 392L66.2783 396C65.8259 395.999 65.3744 395.993 64.9241 395.982L60.5 392L46.5 392L46.5 389.5L41 387.5L33 384L25.5 379L22.0919 379C22.0094 378.926 21.9271 378.852 21.845 378.778C23.4532 377.665 25.2296 375.365 21.5 373.5C17.5 371.5 13.8333 367.667 12.5 366L12.5 361.5L7.5 355L7.5 347.5L3.5 340L7.50001 332L3.50001 323.5L5.50001 315L1.00001 306C3.16668 306.167 7.10001 304.5 5.50001 296.5C3.9 288.5 1.83334 283.5 1.00001 282L3.50001 275.5L1.00001 269L5.50001 265.5C3.16668 264.834 -0.0999945 263.4 5.50001 263L133 263L133 389.5Z" fill="#0D3334"/>
<path fill-rule="evenodd" clip-rule="evenodd" d="M133 361.46L133 263L46.5333 263L40 270L31.5 277.5L36 285.5L32.5 295.5L31.5 310.5C33.691 312.448 33.6418 312.938 33.1443 317.89C32.9606 319.719 32.7157 322.156 32.5 325.5C32.0702 332.162 35.5584 333.329 38.8053 334.414C41.602 335.349 44.2196 336.225 44 340.5C43.9057 342.338 44.8509 344.424 45.749 346.407C46.2388 347.488 46.7146 348.538 47 349.5C47.7755 352.114 49.95 351.946 52.3797 351.759C54.4745 351.597 56.7589 351.421 58.5 353C59.9965 354.358 60.4468 355.065 60.9572 355.867C61.3827 356.535 61.8499 357.27 63 358.5C65.2346 360.892 67.7755 360.985 70.6552 361.091C72.0255 361.142 73.4726 361.195 75 361.5C84.2407 363.346 94.3333 364.334 99 364C103.667 363.667 115.2 363.2 124 364C129.439 364.495 131.974 363.105 133 361.46Z" fill="#084547"/>
<path fill-rule="evenodd" clip-rule="evenodd" d="M6.49988 133L1.49988 126L6.49988 114.5L1.49988 101L3.99988 94.9999L1.49988 81.4999L3.99988 72.4999L0.000241224 66.2783C0.00171767 65.8258 0.00771336 65.3744 0.0181855 64.924L3.99988 60.4999L3.99988 46.4999L6.49988 46.4999L8.49988 40.9999L11.9999 32.9999L16.9999 25.4999L16.9999 22.0918C17.0739 22.0093 17.1482 21.927 17.2226 21.8449C18.3356 23.4531 20.6351 25.2295 22.4999 21.4999C24.4999 17.4999 28.3332 13.8333 29.9999 12.4999L34.4999 12.4999L40.9999 7.49994L48.4999 7.49994L55.9999 3.49994L63.9999 7.49994L72.4999 3.49994L80.9999 5.49994L89.9999 0.999935C89.8332 3.16661 91.4999 7.09993 99.4999 5.49993C107.5 3.89993 112.5 1.83326 114 0.999934L120.5 3.49993L127 0.999933L130.5 5.49993C131.167 3.1666 132.6 -0.100073 133 5.49993L133 133L6.49988 133Z" fill="#0D3334"/>
<path fill-rule="evenodd" clip-rule="evenodd" d="M34.5406 133L133 133L133 46.5333L126 39.9999L118.5 31.4999L110.5 35.9999L100.5 32.4999L85.4999 31.4999C83.5523 33.6909 83.0627 33.6417 78.1101 33.1442C76.2812 32.9605 73.8439 32.7157 70.4999 32.4999C63.838 32.0701 62.6716 35.5584 61.586 38.8052C60.6508 41.6019 59.7756 44.2195 55.4999 43.9999C53.6626 43.9056 51.5759 44.8509 49.5934 45.7489C48.5121 46.2387 47.4618 46.7145 46.4999 46.9999C43.8862 47.7754 44.0539 49.9499 44.2413 52.3796C44.4028 54.4744 44.579 56.7589 42.9999 58.4999C41.6426 59.9964 40.9351 60.4468 40.1333 60.9571C39.4647 61.3826 38.7307 61.8498 37.4999 62.9999C35.1084 65.2346 35.0148 67.7754 34.9088 70.6551C34.8583 72.0255 34.805 73.4726 34.4999 74.9999C32.6539 84.2407 31.6666 94.3333 31.9999 98.9999C32.3332 103.667 32.7999 115.2 31.9999 124C31.5055 129.438 32.8953 131.974 34.5406 133Z" fill="#084547"/>
<path fill-rule="evenodd" clip-rule="evenodd" d="M392.426 264L397.426 271L392.426 282.5L397.426 296L394.926 302L397.426 315.5L394.926 324.5L398.926 330.722C398.925 331.174 398.919 331.626 398.908 332.076L394.926 336.5L394.926 350.5L392.426 350.5L390.426 356L386.926 364L381.926 371.5L381.926 374.908C381.852 374.991 381.778 375.073 381.704 375.155C380.591 373.547 378.291 371.77 376.426 375.5C374.426 379.5 370.593 383.167 368.926 384.5L364.426 384.5L357.926 389.5L350.426 389.5L342.926 393.5L334.926 389.5L326.426 393.5L317.926 391.5L308.926 396C309.093 393.833 307.426 389.9 299.426 391.5C291.426 393.1 286.426 395.167 284.926 396L278.426 393.5L271.926 396L268.426 391.5C267.76 393.833 266.326 397.1 265.926 391.5L265.926 264L392.426 264Z" fill="#0D3334"/>
<path fill-rule="evenodd" clip-rule="evenodd" d="M364.386 264L265.926 264L265.926 350.466L272.927 357L280.427 365.5L288.427 361L298.427 364.5L313.427 365.5C315.374 363.309 315.864 363.358 320.816 363.856C322.645 364.039 325.082 364.284 328.427 364.5C335.088 364.93 336.255 361.442 337.34 358.195C338.276 355.398 339.151 352.78 343.427 353C345.264 353.094 347.35 352.149 349.333 351.251C350.414 350.761 351.465 350.285 352.427 350C355.04 349.225 354.872 347.05 354.685 344.62C354.524 342.526 354.347 340.241 355.927 338.5C357.284 337.004 357.991 336.553 358.793 336.043C359.462 335.617 360.196 335.15 361.427 334C363.818 331.765 363.912 329.225 364.018 326.345C364.068 324.974 364.121 323.527 364.427 322C366.272 312.759 367.26 302.667 366.927 298C366.593 293.333 366.126 281.8 366.927 273C367.421 267.561 366.031 265.026 364.386 264Z" fill="#084547"/>
</svg>
