<svg width="402" height="395" viewBox="0 0 402 395" fill="none" xmlns="http://www.w3.org/2000/svg">
<rect x="32" y="28" width="101" height="105" fill="#352422"/>
<path fill-rule="evenodd" clip-rule="evenodd" d="M1.49964 126L6.49964 133L34.5404 133C32.895 131.974 31.5052 129.439 31.9996 124C32.7996 115.2 32.333 103.667 31.9996 99C31.6663 94.3333 32.6537 84.2407 34.4996 75C34.8047 73.4726 34.858 72.0255 34.9085 70.6552C35.0146 67.7755 35.1082 65.2346 37.4996 63C38.7305 61.8499 39.4645 61.3827 40.133 60.9572C40.9348 60.4468 41.6424 59.9965 42.9996 58.5C44.5787 56.7589 44.4026 54.4744 44.241 52.3797C44.0537 49.95 43.886 47.7755 46.4996 47C47.4616 46.7146 48.5119 46.2388 49.5932 45.749C51.5757 44.8509 53.6624 43.9057 55.4996 44C59.7753 44.2195 60.6506 41.602 61.5857 38.8053C62.6714 35.5584 63.8378 32.0702 70.4996 32.5C73.8436 32.7157 76.281 32.9606 78.1098 33.1443C83.0625 33.6418 83.5521 33.691 85.4996 31.5L100.5 32.5L110.5 36L118.5 31.5L126 40L133 46.5333L133 5.49999C132.6 -0.100012 131.166 3.16667 130.5 5.49999L127 0.999994L120.5 3.49999L114 0.999995C112.5 1.83332 107.5 3.89999 99.4996 5.5C91.4996 7.09999 89.833 3.16667 89.9996 0.999996L80.9996 5.5L72.4996 3.5L63.9996 7.5L55.9996 3.5L48.4996 7.5L40.9996 7.5L34.4996 12.5L29.9996 12.5C28.333 13.8333 24.4996 17.5 22.4996 21.5C20.6348 25.2296 18.3354 23.4532 17.2224 21.845C17.1479 21.9271 17.0737 22.0094 16.9996 22.0919L16.9996 25.5L11.9996 33L8.49963 41L6.49963 46.5L3.99963 46.5L3.99964 60.5L0.0179414 64.9241C0.00746922 65.3744 0.00147352 65.8259 -2.9165e-06 66.2783L3.99964 72.5L1.49964 81.5L3.99964 95L1.49964 101L6.49964 114.5L1.49964 126Z" fill="#0D3334"/>
<rect x="372" y="33" width="101" height="105" transform="rotate(90 372 33)" fill="#352422"/>
<path fill-rule="evenodd" clip-rule="evenodd" d="M274 2.49964L267 7.49964V35.5404C268.026 33.895 270.561 32.5052 276 32.9996C284.8 33.7996 296.333 33.333 301 32.9996C305.667 32.6663 315.759 33.6537 325 35.4996C326.527 35.8047 327.974 35.858 329.345 35.9085C332.225 36.0146 334.765 36.1082 337 38.4996C338.15 39.7305 338.617 40.4645 339.043 41.133C339.553 41.9348 340.004 42.6424 341.5 43.9996C343.241 45.5788 345.526 45.4026 347.62 45.241C350.05 45.0537 352.225 44.886 353 47.4996C353.285 48.4616 353.761 49.5119 354.251 50.5932C355.149 52.5757 356.094 54.6624 356 56.4996C355.78 60.7753 358.398 61.6506 361.195 62.5857C364.442 63.6714 367.93 64.8378 367.5 71.4996C367.284 74.8437 367.039 77.281 366.856 79.1098C366.358 84.0625 366.309 84.5521 368.5 86.4996L367.5 101.5L364 111.5L368.5 119.5L360 127L353.467 134L394.5 134C400.1 133.6 396.833 132.166 394.5 131.5L399 128L396.5 121.5L399 115C398.167 113.5 396.1 108.5 394.5 100.5C392.9 92.4996 396.833 90.833 399 90.9996L394.5 81.9996L396.5 73.4996L392.5 64.9996L396.5 56.9996L392.5 49.4996V41.9996L387.5 35.4996V30.9996C386.167 29.333 382.5 25.4996 378.5 23.4996C374.77 21.6348 376.547 19.3354 378.155 18.2224C378.073 18.1479 377.991 18.0737 377.908 17.9996H374.5L367 12.9996L359 9.49964L353.5 7.49964V4.99964L339.5 4.99964L335.076 1.01794C334.626 1.00747 334.174 1.00148 333.722 1L327.5 4.99964L318.5 2.49964L305 4.99964L299 2.49964L285.5 7.49964L274 2.49964Z" fill="#0D3334"/>
<rect x="134.804" y="128" width="133" height="135" fill="#352422"/>
<path fill-rule="evenodd" clip-rule="evenodd" d="M133 4.19936L135.519 1.19936L138.541 3.69936L143.579 0.19936C145.594 0.19936 148.784 1.53269 150.128 2.19936C152.647 1.19936 158.188 -0.60064 160.203 0.19936C162.218 0.99936 167.088 0.866013 169.271 0.699341L174.308 2.19936C176.155 1.53269 180.253 0.19936 181.865 0.19936C183.477 0.19936 185.895 1.53269 186.902 2.19936L192.444 0.699341L194.962 3.19934C196.138 2.19935 198.791 0.19936 200 0.19936C201.209 0.19936 204.198 1.19935 205.541 1.69934L214.105 0.19936C215.314 0.599344 218.303 0.36602 219.647 0.19936L224.18 1.19934L230.226 0.19936L234.759 1.69934L236.271 0.699341L239.293 1.69934L240.805 0.699341L243.323 2.19936L246.85 0.19936L249.368 0.699341L255.414 0.19936L258.94 1.69934L260.955 0.699341L262.466 1.19934L264.985 0.19936L267 3.19934L267 134.699H133V4.19936Z" fill="#0D3334"/>
<path fill-rule="evenodd" clip-rule="evenodd" d="M133 41.7378L145.09 36.1993H162.722L180.353 28.6993C173.301 33.6993 166.55 42.1993 195.97 36.1993C225.389 30.1993 239.461 33.6993 242.82 36.1993L261.459 28.6993L267 34.1993L267 134.807H133V41.7378Z" fill="#352422"/>
<path fill-rule="evenodd" clip-rule="evenodd" d="M5.19928 262.974L2.18355 260.474L4.66455 257.436L1.13305 252.42C1.12042 250.405 2.43373 247.206 3.09196 245.859C2.07619 243.346 0.241497 237.816 1.02885 235.796C1.81621 233.776 1.65234 228.908 1.47199 226.726L2.9404 221.679C2.26217 219.836 0.903183 215.747 0.893079 214.135C0.882975 212.523 2.20113 210.097 2.86146 209.085L1.32674 203.553L3.81091 201.019C2.80356 199.85 0.786987 197.209 0.779409 196C0.771831 194.791 1.75306 191.796 2.24463 190.449L0.690999 181.895C1.0834 180.684 0.831343 177.696 0.656266 176.354L1.62781 171.814L0.589959 165.775L2.06149 161.232L1.05204 159.727L2.03308 156.698L1.02362 155.193L2.50782 152.665L0.485761 149.151L0.969945 146.629L0.432084 140.588L1.90993 137.052L0.897322 135.043L1.38784 133.529L0.372091 131.016L3.35938 128.983L134.857 128.158L135.697 262.156L5.19928 262.974Z" fill="#0D3334"/>
<path fill-rule="evenodd" clip-rule="evenodd" d="M42.737 262.738L37.1229 250.683L37.0124 233.052L29.402 215.468C34.4461 222.489 42.9882 229.186 36.804 199.804C30.6197 170.423 34.0314 156.33 36.5103 152.956L28.8936 134.364L34.3588 128.788L134.964 128.158L135.804 262.155L42.737 262.738Z" fill="#352422"/>
<path fill-rule="evenodd" clip-rule="evenodd" d="M267 390.607L264.481 393.607L261.459 391.107L256.421 394.607C254.406 394.607 251.216 393.274 249.872 392.607C247.353 393.607 241.812 395.407 239.797 394.607C237.782 393.807 232.912 393.941 230.729 394.107L225.692 392.607C223.845 393.274 219.747 394.607 218.135 394.607C216.523 394.607 214.105 393.274 213.098 392.607L207.556 394.107L205.038 391.607C203.862 392.607 201.209 394.607 200 394.607C198.791 394.607 195.802 393.607 194.459 393.107L185.895 394.607C184.686 394.207 181.697 394.441 180.353 394.607L175.82 393.607L169.774 394.607L165.241 393.107L163.729 394.107L160.707 393.107L159.195 394.107L156.677 392.607L153.15 394.607L150.632 394.107L144.586 394.607L141.06 393.107L139.045 394.107L137.534 393.607L135.015 394.607L133 391.607L133 260.107L267 260.107L267 390.607Z" fill="#0D3334"/>
<path fill-rule="evenodd" clip-rule="evenodd" d="M267 353.069L254.91 358.607L237.278 358.607L219.647 366.107C226.699 361.107 233.45 352.607 204.03 358.607C174.611 364.607 160.539 361.107 157.18 358.607L138.541 366.107L133 360.607L133 260L267 260L267 353.069Z" fill="#352422"/>
<path fill-rule="evenodd" clip-rule="evenodd" d="M397.607 129L400.607 131.519L398.107 134.541L401.607 139.579C401.607 141.594 400.274 144.784 399.607 146.128C400.607 148.647 402.407 154.188 401.607 156.203C400.807 158.218 400.941 163.088 401.107 165.271L399.607 170.308C400.274 172.155 401.607 176.253 401.607 177.865C401.607 179.477 400.274 181.895 399.607 182.902L401.107 188.444L398.607 190.962C399.607 192.138 401.607 194.791 401.607 196C401.607 197.209 400.607 200.198 400.107 201.541L401.607 210.105C401.207 211.314 401.441 214.303 401.607 215.647L400.607 220.18L401.607 226.226L400.107 230.759L401.107 232.271L400.107 235.293L401.107 236.805L399.607 239.323L401.607 242.85L401.107 245.368L401.607 251.414L400.107 254.94L401.107 256.955L400.607 258.466L401.607 260.985L398.607 263L267.107 263L267.107 129L397.607 129Z" fill="#0D3334"/>
<path fill-rule="evenodd" clip-rule="evenodd" d="M360.069 129L365.607 141.09L365.607 158.722L373.107 176.353C368.107 169.301 359.607 162.55 365.607 191.97C371.607 221.389 368.107 235.461 365.607 238.82L373.107 257.459L367.607 263L267 263L267 129L360.069 129Z" fill="#352422"/>
<rect x="28" y="362" width="101" height="105" transform="rotate(-90 28 362)" fill="#352422"/>
<path fill-rule="evenodd" clip-rule="evenodd" d="M126 392.5L133 387.5L133 359.46C131.974 361.105 129.439 362.495 124 362C115.2 361.2 103.667 361.667 99 362C94.3333 362.334 84.2407 361.346 75 359.5C73.4726 359.195 72.0255 359.142 70.6552 359.091C67.7755 358.985 65.2346 358.892 63 356.5C61.8499 355.27 61.3827 354.536 60.9572 353.867C60.4468 353.065 59.9965 352.358 58.5 351C56.7589 349.421 54.4744 349.597 52.3797 349.759C49.95 349.946 47.7755 350.114 47 347.5C46.7146 346.538 46.2388 345.488 45.749 344.407C44.8509 342.424 43.9057 340.338 44 338.5C44.2195 334.225 41.602 333.349 38.8053 332.414C35.5584 331.329 32.0702 330.162 32.5 323.5C32.7157 320.156 32.9606 317.719 33.1443 315.89C33.6418 310.938 33.691 310.448 31.5 308.5L32.5 293.5L36 283.5L31.5 275.5L40 268L46.5333 261L5.49999 261C-0.100018 261.4 3.16666 262.834 5.49999 263.5L0.999989 267L3.49999 273.5L0.99999 280C1.83332 281.5 3.89998 286.5 5.49999 294.5C7.09999 302.5 3.16666 304.167 0.999992 304L5.49999 313L3.49999 321.5L7.49999 330L3.5 338L7.5 345.5L7.5 353L12.5 359.5L12.5 364C13.8333 365.667 17.5 369.5 21.5 371.5C25.2296 373.365 23.4532 375.665 21.845 376.778C21.9271 376.852 22.0094 376.926 22.0919 377L25.5 377L33 382L41 385.5L46.5 387.5L46.5 390L60.5 390L64.9241 393.982C65.3744 393.993 65.8259 393.999 66.2783 394L72.5 390L81.5 392.5L95 390L101 392.5L114.5 387.5L126 392.5Z" fill="#0D3334"/>
<rect x="368" y="368" width="101" height="105" transform="rotate(-180 368 368)" fill="#352422"/>
<path fill-rule="evenodd" clip-rule="evenodd" d="M398.5 270L393.5 263L365.46 263C367.105 264.026 368.495 266.561 368 272C367.2 280.8 367.667 292.333 368 297C368.334 301.667 367.346 311.759 365.5 321C365.195 322.527 365.142 323.974 365.091 325.345C364.985 328.225 364.892 330.765 362.5 333C361.27 334.15 360.536 334.617 359.867 335.043C359.065 335.553 358.358 336.004 357 337.5C355.421 339.241 355.597 341.526 355.759 343.62C355.946 346.05 356.114 348.225 353.5 349C352.538 349.285 351.488 349.761 350.407 350.251C348.424 351.149 346.338 352.094 344.5 352C340.225 351.78 339.349 354.398 338.414 357.195C337.329 360.442 336.162 363.93 329.5 363.5C326.156 363.284 323.719 363.039 321.89 362.856C316.938 362.358 316.448 362.309 314.5 364.5L299.5 363.5L289.5 360L281.5 364.5L274 356L267 349.467L267 390.5C267.4 396.1 268.834 392.833 269.5 390.5L273 395L279.5 392.5L286 395C287.5 394.167 292.5 392.1 300.5 390.5C308.5 388.9 310.167 392.833 310 395L319 390.5L327.5 392.5L336 388.5L344 392.5L351.5 388.5L359 388.5L365.5 383.5L370 383.5C371.667 382.167 375.5 378.5 377.5 374.5C379.365 370.77 381.665 372.547 382.778 374.155C382.852 374.073 382.926 373.991 383 373.908L383 370.5L388 363L391.5 355L393.5 349.5L396 349.5L396 335.5L399.982 331.076C399.993 330.626 399.999 330.174 400 329.722L396 323.5L398.5 314.5L396 301L398.5 295L393.5 281.5L398.5 270Z" fill="#0D3334"/>
<circle cx="81" cy="71" r="5" fill="#412A26"/>
<circle cx="82.5" cy="62.5" r="1.5" fill="#412A26"/>
<circle cx="84.5" cy="91.5" r="1.5" fill="#412A26"/>
<circle cx="82.5" cy="101.5" r="1.5" fill="#412A26"/>
<circle cx="78.5" cy="93.5" r="3.5" fill="#412822"/>
<circle cx="99.5" cy="103.5" r="2.5" fill="#4C3029"/>
<circle cx="56" cy="87" r="3" fill="#412A26"/>
<circle cx="203" cy="72" r="5" fill="#412A26"/>
<circle cx="204.5" cy="63.5" r="1.5" fill="#412A26"/>
<circle cx="206.5" cy="92.5" r="1.5" fill="#412A26"/>
<circle cx="204.5" cy="102.5" r="1.5" fill="#412A26"/>
<circle cx="200.5" cy="94.5" r="3.5" fill="#412822"/>
<circle cx="221.5" cy="104.5" r="2.5" fill="#4C3029"/>
<circle cx="178" cy="88" r="3" fill="#412A26"/>
<circle cx="84" cy="183" r="5" fill="#412A26"/>
<circle cx="85.5" cy="174.5" r="1.5" fill="#412A26"/>
<circle cx="87.5" cy="203.5" r="1.5" fill="#412A26"/>
<circle cx="85.5" cy="213.5" r="1.5" fill="#412A26"/>
<circle cx="81.5" cy="205.5" r="3.5" fill="#412822"/>
<circle cx="102.5" cy="215.5" r="2.5" fill="#4C3029"/>
<circle cx="59" cy="199" r="3" fill="#412A26"/>
<circle cx="195" cy="199" r="5" fill="#412A26"/>
<circle cx="202.5" cy="169.5" r="1.5" fill="#412A26"/>
<circle cx="204.5" cy="198.5" r="1.5" fill="#412A26"/>
<circle cx="202.5" cy="208.5" r="1.5" fill="#412A26"/>
<circle cx="218.5" cy="176.5" r="3.5" fill="#412822"/>
<circle cx="179.5" cy="183.5" r="2.5" fill="#4C3029"/>
<circle cx="206" cy="176" r="3" fill="#412A26"/>
<circle cx="143" cy="129" r="5" fill="#412A26"/>
<circle cx="144.5" cy="120.5" r="1.5" fill="#412A26"/>
<circle cx="146.5" cy="149.5" r="1.5" fill="#412A26"/>
<circle cx="144.5" cy="159.5" r="1.5" fill="#412A26"/>
<circle cx="140.5" cy="151.5" r="3.5" fill="#412822"/>
<circle cx="161.5" cy="161.5" r="2.5" fill="#4C3029"/>
<circle cx="118" cy="145" r="3" fill="#412A26"/>
<circle cx="254.471" cy="137.945" r="5" transform="rotate(-106.229 254.471 137.945)" fill="#412A26"/>
<circle cx="245.89" cy="138.881" r="1.5" transform="rotate(-106.229 245.89 138.881)" fill="#412A26"/>
<circle cx="273.176" cy="128.855" r="1.5" transform="rotate(-106.229 273.176 128.855)" fill="#412A26"/>
<circle cx="283.336" cy="127.981" r="1.5" transform="rotate(-106.229 283.336 127.981)" fill="#412A26"/>
<circle cx="276.773" cy="134.057" r="3.5" transform="rotate(-106.229 276.773 134.057)" fill="#412822"/>
<circle cx="280.505" cy="111.099" r="2.5" transform="rotate(-106.229 280.505 111.099)" fill="#4C3029"/>
<circle cx="276.82" cy="157.477" r="3" transform="rotate(-106.229 276.82 157.477)" fill="#412A26"/>
<circle cx="326" cy="184" r="5" fill="#412A26"/>
<circle cx="327.5" cy="175.5" r="1.5" fill="#412A26"/>
<circle cx="329.5" cy="204.5" r="1.5" fill="#412A26"/>
<circle cx="327.5" cy="214.5" r="1.5" fill="#412A26"/>
<circle cx="323.5" cy="206.5" r="3.5" fill="#412822"/>
<circle cx="344.5" cy="216.5" r="2.5" fill="#4C3029"/>
<circle cx="301" cy="200" r="3" fill="#412A26"/>
<circle cx="310" cy="71" r="5" fill="#412A26"/>
<circle cx="311.5" cy="62.5" r="1.5" fill="#412A26"/>
<circle cx="313.5" cy="91.5" r="1.5" fill="#412A26"/>
<circle cx="311.5" cy="101.5" r="1.5" fill="#412A26"/>
<circle cx="307.5" cy="93.5" r="3.5" fill="#412822"/>
<circle cx="328.5" cy="103.5" r="2.5" fill="#4C3029"/>
<circle cx="285" cy="87" r="3" fill="#412A26"/>
<circle cx="232" cy="297" r="5" fill="#412A26"/>
<circle cx="233.5" cy="288.5" r="1.5" fill="#412A26"/>
<circle cx="235.5" cy="317.5" r="1.5" fill="#412A26"/>
<circle cx="233.5" cy="327.5" r="1.5" fill="#412A26"/>
<circle cx="229.5" cy="319.5" r="3.5" fill="#412822"/>
<circle cx="250.5" cy="329.5" r="2.5" fill="#4C3029"/>
<circle cx="207" cy="313" r="3" fill="#412A26"/>
<circle cx="323" cy="292" r="5" fill="#412A26"/>
<circle cx="324.5" cy="283.5" r="1.5" fill="#412A26"/>
<circle cx="326.5" cy="312.5" r="1.5" fill="#412A26"/>
<circle cx="324.5" cy="322.5" r="1.5" fill="#412A26"/>
<circle cx="320.5" cy="314.5" r="3.5" fill="#412822"/>
<circle cx="341.5" cy="324.5" r="2.5" fill="#4C3029"/>
<circle cx="298" cy="308" r="3" fill="#412A26"/>
<circle cx="148" cy="302" r="5" fill="#412A26"/>
<circle cx="157.5" cy="214.5" r="1.5" fill="#412A26"/>
<circle cx="159.5" cy="243.5" r="1.5" fill="#412A26"/>
<circle cx="157.5" cy="253.5" r="1.5" fill="#412A26"/>
<circle cx="127.5" cy="269.5" r="3.5" fill="#412822"/>
<circle cx="174.5" cy="255.5" r="2.5" fill="#4C3029"/>
<circle cx="131" cy="239" r="3" fill="#412A26"/>
<circle cx="87" cy="300" r="5" fill="#412A26"/>
<circle cx="88.5" cy="291.5" r="1.5" fill="#412A26"/>
<circle cx="90.5" cy="320.5" r="1.5" fill="#412A26"/>
<circle cx="88.5" cy="330.5" r="1.5" fill="#412A26"/>
<circle cx="84.5" cy="322.5" r="3.5" fill="#412822"/>
<circle cx="105.5" cy="332.5" r="2.5" fill="#4C3029"/>
<circle cx="62" cy="316" r="3" fill="#412A26"/>
<circle cx="268.5" cy="210.5" r="1.5" fill="#412A26"/>
<circle cx="270.5" cy="239.5" r="1.5" fill="#412A26"/>
<circle cx="268.5" cy="249.5" r="1.5" fill="#412A26"/>
<circle cx="264.5" cy="241.5" r="3.5" fill="#412822"/>
<circle cx="285.5" cy="251.5" r="2.5" fill="#4C3029"/>
<circle cx="242" cy="235" r="3" fill="#412A26"/>
</svg>
