<svg width="402" height="395" viewBox="0 0 402 395" fill="none" xmlns="http://www.w3.org/2000/svg">
<rect x="32" y="28" width="101" height="105" fill="#143E78"/>
<path fill-rule="evenodd" clip-rule="evenodd" d="M1.49964 126L6.49964 133L34.5404 133C32.895 131.974 31.5052 129.439 31.9996 124C32.7996 115.2 32.333 103.667 31.9996 99C31.6663 94.3333 32.6537 84.2407 34.4996 75C34.8047 73.4726 34.858 72.0255 34.9085 70.6552C35.0146 67.7755 35.1082 65.2346 37.4996 63C38.7305 61.8499 39.4645 61.3827 40.133 60.9572C40.9348 60.4468 41.6424 59.9965 42.9996 58.5C44.5787 56.7589 44.4026 54.4744 44.241 52.3797C44.0537 49.95 43.886 47.7755 46.4996 47C47.4616 46.7146 48.5119 46.2388 49.5932 45.749C51.5757 44.8509 53.6624 43.9057 55.4996 44C59.7753 44.2195 60.6506 41.602 61.5857 38.8053C62.6714 35.5584 63.8378 32.0702 70.4996 32.5C73.8436 32.7157 76.281 32.9606 78.1098 33.1443C83.0625 33.6418 83.5521 33.691 85.4996 31.5L100.5 32.5L110.5 36L118.5 31.5L126 40L133 46.5333L133 5.49999C132.6 -0.100012 131.166 3.16667 130.5 5.49999L127 0.999994L120.5 3.49999L114 0.999995C112.5 1.83332 107.5 3.89999 99.4996 5.5C91.4996 7.09999 89.833 3.16667 89.9996 0.999996L80.9996 5.5L72.4996 3.5L63.9996 7.5L55.9996 3.5L48.4996 7.5L40.9996 7.5L34.4996 12.5L29.9996 12.5C28.333 13.8333 24.4996 17.5 22.4996 21.5C20.6348 25.2296 18.3354 23.4532 17.2224 21.845C17.1479 21.9271 17.0737 22.0094 16.9996 22.0919L16.9996 25.5L11.9996 33L8.49963 41L6.49963 46.5L3.99963 46.5L3.99964 60.5L0.0179414 64.9241C0.00746922 65.3744 0.00147352 65.8259 -2.9165e-06 66.2783L3.99964 72.5L1.49964 81.5L3.99964 95L1.49964 101L6.49964 114.5L1.49964 126Z" fill="#0D3334"/>
<rect x="372" y="33" width="101" height="105" transform="rotate(90 372 33)" fill="#143E78"/>
<path fill-rule="evenodd" clip-rule="evenodd" d="M274 2.49964L267 7.49964V35.5404C268.026 33.895 270.561 32.5052 276 32.9996C284.8 33.7996 296.333 33.333 301 32.9996C305.667 32.6663 315.759 33.6537 325 35.4996C326.527 35.8047 327.974 35.858 329.345 35.9085C332.225 36.0146 334.765 36.1082 337 38.4996C338.15 39.7305 338.617 40.4645 339.043 41.133C339.553 41.9348 340.004 42.6424 341.5 43.9996C343.241 45.5788 345.526 45.4026 347.62 45.241C350.05 45.0537 352.225 44.886 353 47.4996C353.285 48.4616 353.761 49.5119 354.251 50.5932C355.149 52.5757 356.094 54.6624 356 56.4996C355.78 60.7753 358.398 61.6506 361.195 62.5857C364.442 63.6714 367.93 64.8378 367.5 71.4996C367.284 74.8437 367.039 77.281 366.856 79.1098C366.358 84.0625 366.309 84.5521 368.5 86.4996L367.5 101.5L364 111.5L368.5 119.5L360 127L353.467 134L394.5 134C400.1 133.6 396.833 132.166 394.5 131.5L399 128L396.5 121.5L399 115C398.167 113.5 396.1 108.5 394.5 100.5C392.9 92.4996 396.833 90.833 399 90.9996L394.5 81.9996L396.5 73.4996L392.5 64.9996L396.5 56.9996L392.5 49.4996V41.9996L387.5 35.4996V30.9996C386.167 29.333 382.5 25.4996 378.5 23.4996C374.77 21.6348 376.547 19.3354 378.155 18.2224C378.073 18.1479 377.991 18.0737 377.908 17.9996H374.5L367 12.9996L359 9.49964L353.5 7.49964V4.99964L339.5 4.99964L335.076 1.01794C334.626 1.00747 334.174 1.00148 333.722 1L327.5 4.99964L318.5 2.49964L305 4.99964L299 2.49964L285.5 7.49964L274 2.49964Z" fill="#0D3334"/>
<rect x="134.804" y="128" width="133" height="135" fill="#143E78"/>
<path fill-rule="evenodd" clip-rule="evenodd" d="M133 4.19936L135.519 1.19936L138.541 3.69936L143.579 0.19936C145.594 0.19936 148.784 1.53269 150.128 2.19936C152.647 1.19936 158.188 -0.60064 160.203 0.19936C162.218 0.99936 167.088 0.866013 169.271 0.699341L174.308 2.19936C176.155 1.53269 180.253 0.19936 181.865 0.19936C183.477 0.19936 185.895 1.53269 186.902 2.19936L192.444 0.699341L194.962 3.19934C196.138 2.19935 198.791 0.19936 200 0.19936C201.209 0.19936 204.198 1.19935 205.541 1.69934L214.105 0.19936C215.314 0.599344 218.303 0.36602 219.647 0.19936L224.18 1.19934L230.226 0.19936L234.759 1.69934L236.271 0.699341L239.293 1.69934L240.805 0.699341L243.323 2.19936L246.85 0.19936L249.368 0.699341L255.414 0.19936L258.94 1.69934L260.955 0.699341L262.466 1.19934L264.985 0.19936L267 3.19934L267 134.699H133V4.19936Z" fill="#0D3334"/>
<path fill-rule="evenodd" clip-rule="evenodd" d="M133 41.7378L145.09 36.1993H162.722L180.353 28.6993C173.301 33.6993 166.55 42.1993 195.97 36.1993C225.389 30.1993 239.461 33.6993 242.82 36.1993L261.459 28.6993L267 34.1993L267 134.807H133V41.7378Z" fill="#143E78"/>
<path fill-rule="evenodd" clip-rule="evenodd" d="M5.19928 262.974L2.18355 260.474L4.66455 257.436L1.13305 252.42C1.12042 250.405 2.43373 247.206 3.09196 245.859C2.07619 243.346 0.241497 237.816 1.02885 235.796C1.81621 233.776 1.65234 228.908 1.47199 226.726L2.9404 221.679C2.26217 219.836 0.903183 215.747 0.893079 214.135C0.882975 212.523 2.20113 210.097 2.86146 209.085L1.32674 203.553L3.81091 201.019C2.80356 199.85 0.786987 197.209 0.779409 196C0.771831 194.791 1.75306 191.796 2.24463 190.449L0.690999 181.895C1.0834 180.684 0.831343 177.696 0.656266 176.354L1.62781 171.814L0.589959 165.775L2.06149 161.232L1.05204 159.727L2.03308 156.698L1.02362 155.193L2.50782 152.665L0.485761 149.151L0.969945 146.629L0.432084 140.588L1.90993 137.052L0.897322 135.043L1.38784 133.529L0.372091 131.016L3.35938 128.983L134.857 128.158L135.697 262.156L5.19928 262.974Z" fill="#0D3334"/>
<path fill-rule="evenodd" clip-rule="evenodd" d="M42.737 262.738L37.1229 250.683L37.0124 233.052L29.402 215.468C34.4461 222.489 42.9882 229.186 36.804 199.804C30.6197 170.423 34.0314 156.33 36.5103 152.956L28.8936 134.364L34.3588 128.788L134.964 128.158L135.804 262.155L42.737 262.738Z" fill="#143E78"/>
<path fill-rule="evenodd" clip-rule="evenodd" d="M267 390.607L264.481 393.607L261.459 391.107L256.421 394.607C254.406 394.607 251.216 393.274 249.872 392.607C247.353 393.607 241.812 395.407 239.797 394.607C237.782 393.807 232.912 393.941 230.729 394.107L225.692 392.607C223.845 393.274 219.747 394.607 218.135 394.607C216.523 394.607 214.105 393.274 213.098 392.607L207.556 394.107L205.038 391.607C203.862 392.607 201.209 394.607 200 394.607C198.791 394.607 195.802 393.607 194.459 393.107L185.895 394.607C184.686 394.207 181.697 394.441 180.353 394.607L175.82 393.607L169.774 394.607L165.241 393.107L163.729 394.107L160.707 393.107L159.195 394.107L156.677 392.607L153.15 394.607L150.632 394.107L144.586 394.607L141.06 393.107L139.045 394.107L137.534 393.607L135.015 394.607L133 391.607L133 260.107L267 260.107L267 390.607Z" fill="#0D3334"/>
<path fill-rule="evenodd" clip-rule="evenodd" d="M267 353.069L254.91 358.607L237.278 358.607L219.647 366.107C226.699 361.107 233.45 352.607 204.03 358.607C174.611 364.607 160.539 361.107 157.18 358.607L138.541 366.107L133 360.607L133 260L267 260L267 353.069Z" fill="#143E78"/>
<path fill-rule="evenodd" clip-rule="evenodd" d="M397.607 129L400.607 131.519L398.107 134.541L401.607 139.579C401.607 141.594 400.274 144.784 399.607 146.128C400.607 148.647 402.407 154.188 401.607 156.203C400.807 158.218 400.941 163.088 401.107 165.271L399.607 170.308C400.274 172.155 401.607 176.253 401.607 177.865C401.607 179.477 400.274 181.895 399.607 182.902L401.107 188.444L398.607 190.962C399.607 192.138 401.607 194.791 401.607 196C401.607 197.209 400.607 200.198 400.107 201.541L401.607 210.105C401.207 211.314 401.441 214.303 401.607 215.647L400.607 220.18L401.607 226.226L400.107 230.759L401.107 232.271L400.107 235.293L401.107 236.805L399.607 239.323L401.607 242.85L401.107 245.368L401.607 251.414L400.107 254.94L401.107 256.955L400.607 258.466L401.607 260.985L398.607 263L267.107 263L267.107 129L397.607 129Z" fill="#0D3334"/>
<path fill-rule="evenodd" clip-rule="evenodd" d="M360.069 129L365.607 141.09L365.607 158.722L373.107 176.353C368.107 169.301 359.607 162.55 365.607 191.97C371.607 221.389 368.107 235.461 365.607 238.82L373.107 257.459L367.607 263L267 263L267 129L360.069 129Z" fill="#143E78"/>
<rect x="28" y="362" width="101" height="105" transform="rotate(-90 28 362)" fill="#143E78"/>
<path fill-rule="evenodd" clip-rule="evenodd" d="M126 392.5L133 387.5L133 359.46C131.974 361.105 129.439 362.495 124 362C115.2 361.2 103.667 361.667 99 362C94.3333 362.334 84.2407 361.346 75 359.5C73.4726 359.195 72.0255 359.142 70.6552 359.091C67.7755 358.985 65.2346 358.892 63 356.5C61.8499 355.27 61.3827 354.536 60.9572 353.867C60.4468 353.065 59.9965 352.358 58.5 351C56.7589 349.421 54.4744 349.597 52.3797 349.759C49.95 349.946 47.7755 350.114 47 347.5C46.7146 346.538 46.2388 345.488 45.749 344.407C44.8509 342.424 43.9057 340.338 44 338.5C44.2195 334.225 41.602 333.349 38.8053 332.414C35.5584 331.329 32.0702 330.162 32.5 323.5C32.7157 320.156 32.9606 317.719 33.1443 315.89C33.6418 310.938 33.691 310.448 31.5 308.5L32.5 293.5L36 283.5L31.5 275.5L40 268L46.5333 261L5.49999 261C-0.100018 261.4 3.16666 262.834 5.49999 263.5L0.999989 267L3.49999 273.5L0.99999 280C1.83332 281.5 3.89998 286.5 5.49999 294.5C7.09999 302.5 3.16666 304.167 0.999992 304L5.49999 313L3.49999 321.5L7.49999 330L3.5 338L7.5 345.5L7.5 353L12.5 359.5L12.5 364C13.8333 365.667 17.5 369.5 21.5 371.5C25.2296 373.365 23.4532 375.665 21.845 376.778C21.9271 376.852 22.0094 376.926 22.0919 377L25.5 377L33 382L41 385.5L46.5 387.5L46.5 390L60.5 390L64.9241 393.982C65.3744 393.993 65.8259 393.999 66.2783 394L72.5 390L81.5 392.5L95 390L101 392.5L114.5 387.5L126 392.5Z" fill="#0D3334"/>
<rect x="368" y="368" width="101" height="105" transform="rotate(-180 368 368)" fill="#143E78"/>
<path fill-rule="evenodd" clip-rule="evenodd" d="M398.5 270L393.5 263L365.46 263C367.105 264.026 368.495 266.561 368 272C367.2 280.8 367.667 292.333 368 297C368.334 301.667 367.346 311.759 365.5 321C365.195 322.527 365.142 323.974 365.091 325.345C364.985 328.225 364.892 330.765 362.5 333C361.27 334.15 360.536 334.617 359.867 335.043C359.065 335.553 358.358 336.004 357 337.5C355.421 339.241 355.597 341.526 355.759 343.62C355.946 346.05 356.114 348.225 353.5 349C352.538 349.285 351.488 349.761 350.407 350.251C348.424 351.149 346.338 352.094 344.5 352C340.225 351.78 339.349 354.398 338.414 357.195C337.329 360.442 336.162 363.93 329.5 363.5C326.156 363.284 323.719 363.039 321.89 362.856C316.938 362.358 316.448 362.309 314.5 364.5L299.5 363.5L289.5 360L281.5 364.5L274 356L267 349.467L267 390.5C267.4 396.1 268.834 392.833 269.5 390.5L273 395L279.5 392.5L286 395C287.5 394.167 292.5 392.1 300.5 390.5C308.5 388.9 310.167 392.833 310 395L319 390.5L327.5 392.5L336 388.5L344 392.5L351.5 388.5L359 388.5L365.5 383.5L370 383.5C371.667 382.167 375.5 378.5 377.5 374.5C379.365 370.77 381.665 372.547 382.778 374.155C382.852 374.073 382.926 373.991 383 373.908L383 370.5L388 363L391.5 355L393.5 349.5L396 349.5L396 335.5L399.982 331.076C399.993 330.626 399.999 330.174 400 329.722L396 323.5L398.5 314.5L396 301L398.5 295L393.5 281.5L398.5 270Z" fill="#0D3334"/>
<path d="M228.783 152.915C229.096 152.782 229.406 152.732 229.713 152.765C230.066 152.799 230.079 152.885 229.753 153.025C228.433 153.592 227.543 153.902 227.083 153.955C222.956 154.429 219.369 156.279 216.323 159.505C216.255 159.578 216.17 159.632 216.075 159.662C215.98 159.692 215.88 159.696 215.783 159.675C215.686 159.654 215.596 159.608 215.522 159.541C215.449 159.474 215.394 159.39 215.363 159.295L215.273 159.035C215.106 158.522 215.233 158.095 215.653 157.755C218.199 155.709 220.299 153.592 221.953 151.405C222.034 151.296 222.136 151.205 222.253 151.137C222.371 151.068 222.501 151.025 222.636 151.008C222.772 150.991 222.909 151.001 223.041 151.039C223.173 151.076 223.296 151.14 223.403 151.225C224.876 152.412 226.426 153.025 228.053 153.065C228.303 153.072 228.553 153.021 228.783 152.915Z" fill="#63CBEC"/>
<path d="M133.783 68.9154C134.096 68.782 134.406 68.732 134.713 68.7653C135.066 68.7987 135.079 68.8853 134.753 69.0253C133.433 69.592 132.543 69.9021 132.083 69.9554C127.956 70.4287 124.369 72.2787 121.323 75.5053C121.255 75.5782 121.17 75.6322 121.075 75.6619C120.98 75.6917 120.88 75.6962 120.783 75.675C120.686 75.6538 120.596 75.6075 120.522 75.541C120.449 75.4744 120.394 75.3897 120.363 75.2954L120.273 75.0353C120.106 74.522 120.233 74.0953 120.653 73.7553C123.199 71.7087 125.299 69.592 126.953 67.4053C127.034 67.2964 127.136 67.205 127.253 67.1367C127.371 67.0683 127.501 67.0246 127.636 67.0078C127.772 66.991 127.909 67.0015 128.041 67.0389C128.173 67.0763 128.296 67.1398 128.403 67.2254C129.876 68.4121 131.426 69.0254 133.053 69.0654C133.303 69.072 133.553 69.0206 133.783 68.9154Z" fill="#63CBEC"/>
<path d="M235.783 68.9154C236.096 68.782 236.406 68.732 236.713 68.7653C237.066 68.7987 237.079 68.8853 236.753 69.0253C235.433 69.592 234.543 69.9021 234.083 69.9554C229.956 70.4287 226.369 72.2787 223.323 75.5053C223.255 75.5782 223.17 75.6322 223.075 75.6619C222.98 75.6917 222.88 75.6962 222.783 75.675C222.686 75.6538 222.596 75.6075 222.522 75.541C222.449 75.4744 222.394 75.3897 222.363 75.2954L222.273 75.0353C222.106 74.522 222.233 74.0953 222.653 73.7553C225.199 71.7087 227.299 69.592 228.953 67.4053C229.034 67.2964 229.136 67.205 229.253 67.1367C229.371 67.0683 229.501 67.0246 229.636 67.0078C229.772 66.991 229.909 67.0015 230.041 67.0389C230.173 67.0763 230.296 67.1398 230.403 67.2254C231.876 68.4121 233.426 69.0254 235.053 69.0654C235.303 69.072 235.553 69.0206 235.783 68.9154Z" fill="#63CBEC"/>
<path d="M346.783 62.9154C347.096 62.782 347.406 62.732 347.713 62.7653C348.066 62.7987 348.079 62.8853 347.753 63.0253C346.433 63.592 345.543 63.9021 345.083 63.9554C340.956 64.4287 337.369 66.2787 334.323 69.5053C334.255 69.5782 334.17 69.6322 334.075 69.6619C333.98 69.6917 333.88 69.6962 333.783 69.675C333.686 69.6538 333.596 69.6075 333.522 69.541C333.449 69.4744 333.394 69.3897 333.363 69.2954L333.273 69.0353C333.106 68.522 333.233 68.0953 333.653 67.7553C336.199 65.7087 338.299 63.592 339.953 61.4053C340.034 61.2964 340.136 61.205 340.253 61.1367C340.371 61.0683 340.501 61.0246 340.636 61.0078C340.772 60.991 340.909 61.0015 341.041 61.0389C341.173 61.0763 341.296 61.1398 341.403 61.2254C342.876 62.4121 344.426 63.0254 346.053 63.0654C346.303 63.072 346.553 63.0206 346.783 62.9154Z" fill="#63CBEC"/>
<path d="M351.783 152.915C352.096 152.782 352.406 152.732 352.713 152.765C353.066 152.799 353.079 152.885 352.753 153.025C351.433 153.592 350.543 153.902 350.083 153.955C345.956 154.429 342.369 156.279 339.323 159.505C339.255 159.578 339.17 159.632 339.075 159.662C338.98 159.692 338.88 159.696 338.783 159.675C338.686 159.654 338.596 159.608 338.522 159.541C338.449 159.474 338.394 159.39 338.363 159.295L338.273 159.035C338.106 158.522 338.233 158.095 338.653 157.755C341.199 155.709 343.299 153.592 344.953 151.405C345.034 151.296 345.136 151.205 345.253 151.137C345.371 151.068 345.501 151.025 345.636 151.008C345.772 150.991 345.909 151.001 346.041 151.039C346.173 151.076 346.296 151.14 346.403 151.225C347.876 152.412 349.426 153.025 351.053 153.065C351.303 153.072 351.553 153.021 351.783 152.915Z" fill="#63CBEC"/>
<path d="M348.783 248.915C349.096 248.782 349.406 248.732 349.713 248.765C350.066 248.799 350.079 248.885 349.753 249.025C348.433 249.592 347.543 249.902 347.083 249.955C342.956 250.429 339.369 252.279 336.323 255.505C336.255 255.578 336.17 255.632 336.075 255.662C335.98 255.692 335.88 255.696 335.783 255.675C335.686 255.654 335.596 255.608 335.522 255.541C335.449 255.474 335.394 255.39 335.363 255.295L335.273 255.035C335.106 254.522 335.233 254.095 335.653 253.755C338.199 251.709 340.299 249.592 341.953 247.405C342.034 247.296 342.136 247.205 342.253 247.137C342.371 247.068 342.501 247.025 342.636 247.008C342.772 246.991 342.909 247.001 343.041 247.039C343.173 247.076 343.296 247.14 343.403 247.225C344.876 248.412 346.426 249.025 348.053 249.065C348.303 249.072 348.553 249.021 348.783 248.915Z" fill="#63CBEC"/>
<path d="M228.783 290.915C229.096 290.782 229.406 290.732 229.713 290.765C230.066 290.799 230.079 290.885 229.753 291.025C228.433 291.592 227.543 291.902 227.083 291.955C222.956 292.429 219.369 294.279 216.323 297.505C216.255 297.578 216.17 297.632 216.075 297.662C215.98 297.692 215.88 297.696 215.783 297.675C215.686 297.654 215.596 297.608 215.522 297.541C215.449 297.474 215.394 297.39 215.363 297.295L215.273 297.035C215.106 296.522 215.233 296.095 215.653 295.755C218.199 293.709 220.299 291.592 221.953 289.405C222.034 289.296 222.136 289.205 222.253 289.137C222.371 289.068 222.501 289.025 222.636 289.008C222.772 288.991 222.909 289.001 223.041 289.039C223.173 289.076 223.296 289.14 223.403 289.225C224.876 290.412 226.426 291.025 228.053 291.065C228.303 291.072 228.553 291.021 228.783 290.915Z" fill="#63CBEC"/>
<path d="M125.783 177.915C126.096 177.782 126.406 177.732 126.713 177.765C127.066 177.799 127.079 177.885 126.753 178.025C125.433 178.592 124.543 178.902 124.083 178.955C119.956 179.429 116.369 181.279 113.323 184.505C113.255 184.578 113.17 184.632 113.075 184.662C112.98 184.692 112.88 184.696 112.783 184.675C112.686 184.654 112.596 184.608 112.522 184.541C112.449 184.474 112.394 184.39 112.363 184.295L112.273 184.035C112.106 183.522 112.233 183.095 112.653 182.755C115.199 180.709 117.299 178.592 118.953 176.405C119.034 176.296 119.136 176.205 119.253 176.137C119.371 176.068 119.501 176.025 119.636 176.008C119.772 175.991 119.909 176.001 120.041 176.039C120.173 176.076 120.296 176.14 120.403 176.225C121.876 177.412 123.426 178.025 125.053 178.065C125.303 178.072 125.553 178.021 125.783 177.915Z" fill="#63CBEC"/>
<path d="M126.783 287.915C127.096 287.782 127.406 287.732 127.713 287.765C128.066 287.799 128.079 287.885 127.753 288.025C126.433 288.592 125.543 288.902 125.083 288.955C120.956 289.429 117.369 291.279 114.323 294.505C114.255 294.578 114.17 294.632 114.075 294.662C113.98 294.692 113.88 294.696 113.783 294.675C113.686 294.654 113.596 294.608 113.522 294.541C113.449 294.474 113.394 294.39 113.363 294.295L113.273 294.035C113.106 293.522 113.233 293.095 113.653 292.755C116.199 290.709 118.299 288.592 119.953 286.405C120.034 286.296 120.136 286.205 120.253 286.137C120.371 286.068 120.501 286.025 120.636 286.008C120.772 285.991 120.909 286.001 121.041 286.039C121.173 286.076 121.296 286.14 121.403 286.225C122.876 287.412 124.426 288.025 126.053 288.065C126.303 288.072 126.553 288.021 126.783 287.915Z" fill="#63CBEC"/>
<path d="M193.512 158.585C189.442 161.465 187.482 167.245 187.282 171.865C187.229 173.225 187.179 174.542 187.133 175.815C187.129 175.91 187.09 176 187.025 176.068C186.96 176.137 186.872 176.179 186.778 176.188C186.684 176.196 186.59 176.17 186.514 176.115C186.437 176.059 186.383 175.978 186.363 175.885C185.383 171.805 185.953 168.065 187.713 163.875C188.563 161.855 188.803 159.865 189.413 157.815C189.513 157.495 189.726 157.319 190.053 157.285C191.353 157.145 192.493 157.339 193.473 157.865C193.866 158.079 193.879 158.319 193.512 158.585Z" fill="#63CBEC"/>
<path d="M98.5125 74.5855C94.4425 77.4655 92.4825 83.2454 92.2825 87.8654C92.2292 89.2254 92.1792 90.5421 92.1325 91.8155C92.1286 91.9099 92.0905 91.9997 92.0253 92.0682C91.9601 92.1366 91.8723 92.179 91.7781 92.1875C91.684 92.1961 91.59 92.1702 91.5135 92.1147C91.4371 92.0591 91.3834 91.9776 91.3625 91.8854C90.3825 87.8054 90.9525 84.0654 92.7125 79.8754C93.5625 77.8554 93.8025 75.8655 94.4125 73.8155C94.5125 73.4955 94.7258 73.3188 95.0525 73.2854C96.3525 73.1454 97.4925 73.3387 98.4725 73.8654C98.8658 74.0787 98.8792 74.3188 98.5125 74.5855Z" fill="#63CBEC"/>
<path d="M200.512 74.5855C196.442 77.4655 194.482 83.2454 194.282 87.8654C194.229 89.2254 194.179 90.5421 194.133 91.8155C194.129 91.9099 194.09 91.9997 194.025 92.0682C193.96 92.1366 193.872 92.179 193.778 92.1875C193.684 92.1961 193.59 92.1702 193.514 92.1147C193.437 92.0591 193.383 91.9776 193.363 91.8854C192.383 87.8054 192.953 84.0654 194.713 79.8754C195.563 77.8554 195.803 75.8655 196.413 73.8155C196.513 73.4955 196.726 73.3188 197.053 73.2854C198.353 73.1454 199.493 73.3387 200.473 73.8654C200.866 74.0787 200.879 74.3188 200.512 74.5855Z" fill="#63CBEC"/>
<path d="M311.512 68.5855C307.442 71.4655 305.482 77.2454 305.282 81.8654C305.229 83.2254 305.179 84.5421 305.133 85.8155C305.129 85.9099 305.09 85.9997 305.025 86.0682C304.96 86.1366 304.872 86.179 304.778 86.1875C304.684 86.1961 304.59 86.1702 304.514 86.1147C304.437 86.0591 304.383 85.9776 304.363 85.8854C303.383 81.8054 303.953 78.0654 305.713 73.8754C306.563 71.8554 306.803 69.8655 307.413 67.8155C307.513 67.4955 307.726 67.3188 308.053 67.2854C309.353 67.1454 310.493 67.3387 311.473 67.8654C311.866 68.0787 311.879 68.3188 311.512 68.5855Z" fill="#63CBEC"/>
<path d="M316.512 158.585C312.442 161.465 310.482 167.245 310.282 171.865C310.229 173.225 310.179 174.542 310.133 175.815C310.129 175.91 310.09 176 310.025 176.068C309.96 176.137 309.872 176.179 309.778 176.188C309.684 176.196 309.59 176.17 309.514 176.115C309.437 176.059 309.383 175.978 309.363 175.885C308.383 171.805 308.953 168.065 310.713 163.875C311.563 161.855 311.803 159.865 312.413 157.815C312.513 157.495 312.726 157.319 313.053 157.285C314.353 157.145 315.493 157.339 316.473 157.865C316.866 158.079 316.879 158.319 316.512 158.585Z" fill="#63CBEC"/>
<path d="M313.512 254.585C309.442 257.465 307.482 263.245 307.282 267.865C307.229 269.225 307.179 270.542 307.133 271.815C307.129 271.91 307.09 272 307.025 272.068C306.96 272.137 306.872 272.179 306.778 272.188C306.684 272.196 306.59 272.17 306.514 272.115C306.437 272.059 306.383 271.978 306.363 271.885C305.383 267.805 305.953 264.065 307.713 259.875C308.563 257.855 308.803 255.865 309.413 253.815C309.513 253.495 309.726 253.319 310.053 253.285C311.353 253.145 312.493 253.339 313.473 253.865C313.866 254.079 313.879 254.319 313.512 254.585Z" fill="#63CBEC"/>
<path d="M193.512 296.585C189.442 299.465 187.482 305.245 187.282 309.865C187.229 311.225 187.179 312.542 187.133 313.815C187.129 313.91 187.09 314 187.025 314.068C186.96 314.137 186.872 314.179 186.778 314.188C186.684 314.196 186.59 314.17 186.514 314.115C186.437 314.059 186.383 313.978 186.363 313.885C185.383 309.805 185.953 306.065 187.713 301.875C188.563 299.855 188.803 297.865 189.413 295.815C189.513 295.495 189.726 295.319 190.053 295.285C191.353 295.145 192.493 295.339 193.473 295.865C193.866 296.079 193.879 296.319 193.512 296.585Z" fill="#63CBEC"/>
<path d="M90.5125 183.585C86.4425 186.465 84.4825 192.245 84.2825 196.865C84.2292 198.225 84.1792 199.542 84.1325 200.815C84.1286 200.91 84.0905 201 84.0253 201.068C83.9601 201.137 83.8723 201.179 83.7781 201.188C83.684 201.196 83.59 201.17 83.5135 201.115C83.4371 201.059 83.3834 200.978 83.3625 200.885C82.3825 196.805 82.9525 193.065 84.7125 188.875C85.5625 186.855 85.8025 184.865 86.4125 182.815C86.5125 182.495 86.7258 182.319 87.0525 182.285C88.3525 182.145 89.4925 182.339 90.4725 182.865C90.8658 183.079 90.8792 183.319 90.5125 183.585Z" fill="#63CBEC"/>
<path d="M91.5125 293.585C87.4425 296.465 85.4825 302.245 85.2825 306.865C85.2292 308.225 85.1792 309.542 85.1325 310.815C85.1286 310.91 85.0905 311 85.0253 311.068C84.9601 311.137 84.8723 311.179 84.7781 311.188C84.684 311.196 84.59 311.17 84.5135 311.115C84.4371 311.059 84.3834 310.978 84.3625 310.885C83.3825 306.805 83.9525 303.065 85.7125 298.875C86.5625 296.855 86.8025 294.865 87.4125 292.815C87.5125 292.495 87.7258 292.319 88.0525 292.285C89.3525 292.145 90.4925 292.339 91.4725 292.865C91.8658 293.079 91.8792 293.319 91.5125 293.585Z" fill="#63CBEC"/>
<path d="M168.793 174.885C169.119 175.512 169.476 175.879 169.863 175.985C170.275 176.103 170.638 176.357 170.896 176.709C171.154 177.061 171.293 177.492 171.293 177.935C171.293 182.189 171.313 186.689 171.353 191.435C171.356 191.876 171.508 192.302 171.784 192.644C172.061 192.985 172.444 193.222 172.873 193.315L179.903 194.835C180.503 194.962 180.496 195.042 179.883 195.075C177.949 195.162 175.849 195.089 173.583 194.855C172.349 194.729 171.376 195.129 170.663 196.055C169.593 197.445 167.043 201.305 165.363 202.165C163.816 202.952 163.586 202.669 164.673 201.315C166.353 199.215 168.009 196.799 169.643 194.065C169.823 193.765 169.899 193.442 169.873 193.095C169.606 189.835 169.686 185.445 170.113 179.925C170.293 177.605 169.516 175.742 167.783 174.335C167.496 174.102 167.533 174.025 167.893 174.105C168.266 174.192 168.566 174.452 168.793 174.885Z" fill="#63CBEC"/>
<path d="M73.7926 90.8854C74.1193 91.512 74.476 91.8788 74.8626 91.9855C75.2751 92.1033 75.638 92.3574 75.896 92.7094C76.1541 93.0613 76.2934 93.4918 76.2926 93.9354C76.2926 98.1888 76.3126 102.689 76.3526 107.435C76.3558 107.876 76.508 108.302 76.7843 108.644C77.0605 108.985 77.4444 109.222 77.8726 109.315L84.9026 110.835C85.5026 110.962 85.496 111.042 84.8826 111.075C82.9493 111.162 80.8493 111.089 78.5826 110.855C77.3493 110.729 76.376 111.129 75.6626 112.055C74.5926 113.445 72.0426 117.305 70.3626 118.165C68.816 118.952 68.586 118.669 69.6726 117.315C71.3526 115.215 73.0093 112.799 74.6426 110.065C74.8226 109.765 74.8993 109.442 74.8726 109.095C74.606 105.835 74.686 101.445 75.1126 95.9254C75.2926 93.6054 74.516 91.7421 72.7826 90.3355C72.496 90.1021 72.5326 90.0255 72.8926 90.1055C73.266 90.1921 73.566 90.452 73.7926 90.8854Z" fill="#63CBEC"/>
<path d="M175.793 90.8854C176.119 91.512 176.476 91.8788 176.863 91.9855C177.275 92.1033 177.638 92.3574 177.896 92.7094C178.154 93.0613 178.293 93.4918 178.293 93.9354C178.293 98.1888 178.313 102.689 178.353 107.435C178.356 107.876 178.508 108.302 178.784 108.644C179.061 108.985 179.444 109.222 179.873 109.315L186.903 110.835C187.503 110.962 187.496 111.042 186.883 111.075C184.949 111.162 182.849 111.089 180.583 110.855C179.349 110.729 178.376 111.129 177.663 112.055C176.593 113.445 174.043 117.305 172.363 118.165C170.816 118.952 170.586 118.669 171.673 117.315C173.353 115.215 175.009 112.799 176.643 110.065C176.823 109.765 176.899 109.442 176.873 109.095C176.606 105.835 176.686 101.445 177.113 95.9254C177.293 93.6054 176.516 91.7421 174.783 90.3355C174.496 90.1021 174.533 90.0255 174.893 90.1055C175.266 90.1921 175.566 90.452 175.793 90.8854Z" fill="#63CBEC"/>
<path d="M286.793 84.8854C287.119 85.512 287.476 85.8788 287.863 85.9855C288.275 86.1033 288.638 86.3574 288.896 86.7094C289.154 87.0613 289.293 87.4918 289.293 87.9354C289.293 92.1888 289.313 96.6888 289.353 101.435C289.356 101.876 289.508 102.302 289.784 102.644C290.061 102.985 290.444 103.222 290.873 103.315L297.903 104.835C298.503 104.962 298.496 105.042 297.883 105.075C295.949 105.162 293.849 105.089 291.583 104.855C290.349 104.729 289.376 105.129 288.663 106.055C287.593 107.445 285.043 111.305 283.363 112.165C281.816 112.952 281.586 112.669 282.673 111.315C284.353 109.215 286.009 106.799 287.643 104.065C287.823 103.765 287.899 103.442 287.873 103.095C287.606 99.8355 287.686 95.4454 288.113 89.9254C288.293 87.6054 287.516 85.7421 285.783 84.3355C285.496 84.1021 285.533 84.0255 285.893 84.1055C286.266 84.1921 286.566 84.452 286.793 84.8854Z" fill="#63CBEC"/>
<path d="M291.793 174.885C292.119 175.512 292.476 175.879 292.863 175.985C293.275 176.103 293.638 176.357 293.896 176.709C294.154 177.061 294.293 177.492 294.293 177.935C294.293 182.189 294.313 186.689 294.353 191.435C294.356 191.876 294.508 192.302 294.784 192.644C295.061 192.985 295.444 193.222 295.873 193.315L302.903 194.835C303.503 194.962 303.496 195.042 302.883 195.075C300.949 195.162 298.849 195.089 296.583 194.855C295.349 194.729 294.376 195.129 293.663 196.055C292.593 197.445 290.043 201.305 288.363 202.165C286.816 202.952 286.586 202.669 287.673 201.315C289.353 199.215 291.009 196.799 292.643 194.065C292.823 193.765 292.899 193.442 292.873 193.095C292.606 189.835 292.686 185.445 293.113 179.925C293.293 177.605 292.516 175.742 290.783 174.335C290.496 174.102 290.533 174.025 290.893 174.105C291.266 174.192 291.566 174.452 291.793 174.885Z" fill="#63CBEC"/>
<path d="M288.793 270.885C289.119 271.512 289.476 271.879 289.863 271.985C290.275 272.103 290.638 272.357 290.896 272.709C291.154 273.061 291.293 273.492 291.293 273.935C291.293 278.189 291.313 282.689 291.353 287.435C291.356 287.876 291.508 288.302 291.784 288.644C292.061 288.985 292.444 289.222 292.873 289.315L299.903 290.835C300.503 290.962 300.496 291.042 299.883 291.075C297.949 291.162 295.849 291.089 293.583 290.855C292.349 290.729 291.376 291.129 290.663 292.055C289.593 293.445 287.043 297.305 285.363 298.165C283.816 298.952 283.586 298.669 284.673 297.315C286.353 295.215 288.009 292.799 289.643 290.065C289.823 289.765 289.899 289.442 289.873 289.095C289.606 285.835 289.686 281.445 290.113 275.925C290.293 273.605 289.516 271.742 287.783 270.335C287.496 270.102 287.533 270.025 287.893 270.105C288.266 270.192 288.566 270.452 288.793 270.885Z" fill="#63CBEC"/>
<path d="M168.793 312.885C169.119 313.512 169.476 313.879 169.863 313.985C170.275 314.103 170.638 314.357 170.896 314.709C171.154 315.061 171.293 315.492 171.293 315.935C171.293 320.189 171.313 324.689 171.353 329.435C171.356 329.876 171.508 330.302 171.784 330.644C172.061 330.985 172.444 331.222 172.873 331.315L179.903 332.835C180.503 332.962 180.496 333.042 179.883 333.075C177.949 333.162 175.849 333.089 173.583 332.855C172.349 332.729 171.376 333.129 170.663 334.055C169.593 335.445 167.043 339.305 165.363 340.165C163.816 340.952 163.586 340.669 164.673 339.315C166.353 337.215 168.009 334.799 169.643 332.065C169.823 331.765 169.899 331.442 169.873 331.095C169.606 327.835 169.686 323.445 170.113 317.925C170.293 315.605 169.516 313.742 167.783 312.335C167.496 312.102 167.533 312.025 167.893 312.105C168.266 312.192 168.566 312.452 168.793 312.885Z" fill="#63CBEC"/>
<path d="M65.7926 199.885C66.1193 200.512 66.476 200.879 66.8626 200.985C67.2751 201.103 67.638 201.357 67.896 201.709C68.1541 202.061 68.2934 202.492 68.2926 202.935C68.2926 207.189 68.3126 211.689 68.3526 216.435C68.3558 216.876 68.508 217.302 68.7843 217.644C69.0605 217.985 69.4444 218.222 69.8726 218.315L76.9026 219.835C77.5026 219.962 77.496 220.042 76.8826 220.075C74.9493 220.162 72.8493 220.089 70.5826 219.855C69.3493 219.729 68.376 220.129 67.6626 221.055C66.5926 222.445 64.0426 226.305 62.3626 227.165C60.816 227.952 60.586 227.669 61.6726 226.315C63.3526 224.215 65.0093 221.799 66.6426 219.065C66.8226 218.765 66.8993 218.442 66.8726 218.095C66.606 214.835 66.686 210.445 67.1126 204.925C67.2926 202.605 66.516 200.742 64.7826 199.335C64.496 199.102 64.5326 199.025 64.8926 199.105C65.266 199.192 65.566 199.452 65.7926 199.885Z" fill="#63CBEC"/>
<path d="M66.7926 309.885C67.1193 310.512 67.476 310.879 67.8626 310.985C68.2751 311.103 68.638 311.357 68.896 311.709C69.1541 312.061 69.2934 312.492 69.2926 312.935C69.2926 317.189 69.3126 321.689 69.3526 326.435C69.3558 326.876 69.508 327.302 69.7843 327.644C70.0605 327.985 70.4444 328.222 70.8726 328.315L77.9026 329.835C78.5026 329.962 78.496 330.042 77.8826 330.075C75.9493 330.162 73.8493 330.089 71.5826 329.855C70.3493 329.729 69.376 330.129 68.6626 331.055C67.5926 332.445 65.0426 336.305 63.3626 337.165C61.816 337.952 61.586 337.669 62.6726 336.315C64.3526 334.215 66.0093 331.799 67.6426 329.065C67.8226 328.765 67.8993 328.442 67.8726 328.095C67.606 324.835 67.686 320.445 68.1126 314.925C68.2926 312.605 67.516 310.742 65.7826 309.335C65.496 309.102 65.5326 309.025 65.8926 309.105C66.266 309.192 66.566 309.452 66.7926 309.885Z" fill="#63CBEC"/>
<path d="M201.513 205.695C201.013 206.969 200.416 208.002 199.723 208.795C199.629 208.902 199.516 208.922 199.383 208.855C199.169 208.762 199.113 208.609 199.213 208.395C200.226 206.255 200.956 204.389 201.403 202.795C202.163 200.115 202.103 197.095 201.223 193.735C200.883 192.415 200.283 191.965 199.423 191.025C199.189 190.772 199.223 190.562 199.523 190.395C200.403 189.909 201.323 189.775 202.283 189.995C202.609 190.069 202.803 190.269 202.863 190.595C203.149 192.155 203.543 193.669 204.043 195.135C204.673 196.995 204.173 197.785 203.053 199.155C201.533 200.995 202.393 203.485 201.513 205.695Z" fill="#63CBEC"/>
<path d="M106.513 121.695C106.013 122.969 105.416 124.002 104.723 124.795C104.629 124.902 104.516 124.922 104.383 124.855C104.169 124.762 104.113 124.609 104.213 124.395C105.226 122.255 105.956 120.389 106.403 118.795C107.163 116.115 107.103 113.095 106.223 109.735C105.883 108.415 105.283 107.965 104.423 107.025C104.189 106.772 104.223 106.562 104.523 106.395C105.403 105.909 106.323 105.775 107.283 105.995C107.609 106.069 107.803 106.269 107.863 106.595C108.149 108.155 108.543 109.669 109.043 111.135C109.673 112.995 109.173 113.785 108.053 115.155C106.533 116.995 107.393 119.485 106.513 121.695Z" fill="#63CBEC"/>
<path d="M208.513 121.695C208.013 122.969 207.416 124.002 206.723 124.795C206.629 124.902 206.516 124.922 206.383 124.855C206.169 124.762 206.113 124.609 206.213 124.395C207.226 122.255 207.956 120.389 208.403 118.795C209.163 116.115 209.103 113.095 208.223 109.735C207.883 108.415 207.283 107.965 206.423 107.025C206.189 106.772 206.223 106.562 206.523 106.395C207.403 105.909 208.323 105.775 209.283 105.995C209.609 106.069 209.803 106.269 209.863 106.595C210.149 108.155 210.543 109.669 211.043 111.135C211.673 112.995 211.173 113.785 210.053 115.155C208.533 116.995 209.393 119.485 208.513 121.695Z" fill="#63CBEC"/>
<path d="M319.513 115.695C319.013 116.969 318.416 118.002 317.723 118.795C317.629 118.902 317.516 118.922 317.383 118.855C317.169 118.762 317.113 118.609 317.213 118.395C318.226 116.255 318.956 114.389 319.403 112.795C320.163 110.115 320.103 107.095 319.223 103.735C318.883 102.415 318.283 101.965 317.423 101.025C317.189 100.772 317.223 100.562 317.523 100.395C318.403 99.9087 319.323 99.7753 320.283 99.9953C320.609 100.069 320.803 100.269 320.863 100.595C321.149 102.155 321.543 103.669 322.043 105.135C322.673 106.995 322.173 107.785 321.053 109.155C319.533 110.995 320.393 113.485 319.513 115.695Z" fill="#63CBEC"/>
<path d="M324.513 205.695C324.013 206.969 323.416 208.002 322.723 208.795C322.629 208.902 322.516 208.922 322.383 208.855C322.169 208.762 322.113 208.609 322.213 208.395C323.226 206.255 323.956 204.389 324.403 202.795C325.163 200.115 325.103 197.095 324.223 193.735C323.883 192.415 323.283 191.965 322.423 191.025C322.189 190.772 322.223 190.562 322.523 190.395C323.403 189.909 324.323 189.775 325.283 189.995C325.609 190.069 325.803 190.269 325.863 190.595C326.149 192.155 326.543 193.669 327.043 195.135C327.673 196.995 327.173 197.785 326.053 199.155C324.533 200.995 325.393 203.485 324.513 205.695Z" fill="#63CBEC"/>
<path d="M321.513 301.695C321.013 302.969 320.416 304.002 319.723 304.795C319.629 304.902 319.516 304.922 319.383 304.855C319.169 304.762 319.113 304.609 319.213 304.395C320.226 302.255 320.956 300.389 321.403 298.795C322.163 296.115 322.103 293.095 321.223 289.735C320.883 288.415 320.283 287.965 319.423 287.025C319.189 286.772 319.223 286.562 319.523 286.395C320.403 285.909 321.323 285.775 322.283 285.995C322.609 286.069 322.803 286.269 322.863 286.595C323.149 288.155 323.543 289.669 324.043 291.135C324.673 292.995 324.173 293.785 323.053 295.155C321.533 296.995 322.393 299.485 321.513 301.695Z" fill="#63CBEC"/>
<path d="M201.513 343.695C201.013 344.969 200.416 346.002 199.723 346.795C199.629 346.902 199.516 346.922 199.383 346.855C199.169 346.762 199.113 346.609 199.213 346.395C200.226 344.255 200.956 342.389 201.403 340.795C202.163 338.115 202.103 335.095 201.223 331.735C200.883 330.415 200.283 329.965 199.423 329.025C199.189 328.772 199.223 328.562 199.523 328.395C200.403 327.909 201.323 327.775 202.283 327.995C202.609 328.069 202.803 328.269 202.863 328.595C203.149 330.155 203.543 331.669 204.043 333.135C204.673 334.995 204.173 335.785 203.053 337.155C201.533 338.995 202.393 341.485 201.513 343.695Z" fill="#63CBEC"/>
<path d="M98.5127 230.695C98.0127 231.969 97.416 233.002 96.7227 233.795C96.6293 233.902 96.516 233.922 96.3827 233.855C96.1693 233.762 96.1127 233.609 96.2127 233.395C97.226 231.255 97.956 229.389 98.4027 227.795C99.1627 225.115 99.1027 222.095 98.2227 218.735C97.8827 217.415 97.2827 216.965 96.4227 216.025C96.1893 215.772 96.2227 215.562 96.5227 215.395C97.4027 214.909 98.3227 214.775 99.2827 214.995C99.6093 215.069 99.8027 215.269 99.8627 215.595C100.149 217.155 100.543 218.669 101.043 220.135C101.673 221.995 101.173 222.785 100.053 224.155C98.5327 225.995 99.3927 228.485 98.5127 230.695Z" fill="#63CBEC"/>
<path d="M99.5127 340.695C99.0127 341.969 98.416 343.002 97.7227 343.795C97.6293 343.902 97.516 343.922 97.3827 343.855C97.1693 343.762 97.1127 343.609 97.2127 343.395C98.226 341.255 98.956 339.389 99.4027 337.795C100.163 335.115 100.103 332.095 99.2227 328.735C98.8827 327.415 98.2827 326.965 97.4227 326.025C97.1893 325.772 97.2227 325.562 97.5227 325.395C98.4027 324.909 99.3227 324.775 100.283 324.995C100.609 325.069 100.803 325.269 100.863 325.595C101.149 327.155 101.543 328.669 102.043 330.135C102.673 331.995 102.173 332.785 101.053 334.155C99.5327 335.995 100.393 338.485 99.5127 340.695Z" fill="#63CBEC"/>
</svg>
